<?xml version="1.0" encoding="utf-8"?>
<!-- Generator: Adobe Illustrator 25.4.1, SVG Export Plug-In . SVG Version: 6.00 Build 0)  -->
<svg version="1.1" xmlns="http://www.w3.org/2000/svg" xmlns:xlink="http://www.w3.org/1999/xlink" x="0px" y="0px"
	 viewBox="0 0 1080 1080" style="enable-background:new 0 0 1080 1080;" xml:space="preserve">
<style type="text/css">
	.st0{display:none;}
	.st1{display:inline;fill:#F38AB8;}
	.st2{fill:#BBD7E9;}
	.st3{fill:#039A51;}
</style>
<g id="Layer_2" class="st0">
	<rect class="st1" width="1080" height="1080"/>
</g>
<g id="Layer_1">
	<g>
		<g>
			<rect x="485.27" y="330.37" class="st2" width="109.47" height="85.35"/>
			<rect x="485.27" y="330.37" class="st2" width="109.47" height="85.35"/>
		</g>
		<g>
			<g>
				<path class="st2" d="M540,723.61c-101.4,0-183.61-82.2-183.61-183.61c0-29.56,6.99-57.48,19.4-82.21V297.21
					C298.03,349.91,246.92,438.99,246.92,540c0,161.86,131.21,293.08,293.08,293.08c123.16,0,228.56-75.98,271.93-183.61H687.41
					C653.95,694.46,600.38,723.61,540,723.61z"/>
				<path class="st2" d="M485.26,364.69c17.29-5.39,35.67-8.3,54.74-8.3c101.4,0,183.61,82.2,183.61,183.61h109.47
					c0-161.86-131.21-293.08-293.08-293.08c-18.71,0-37,1.77-54.74,5.12V364.69z"/>
			</g>
			<g>
				<path class="st2" d="M540,723.61c-101.4,0-183.61-82.2-183.61-183.61c0-29.56,6.99-57.48,19.4-82.21V297.21
					C298.03,349.91,246.92,438.99,246.92,540c0,161.86,131.21,293.08,293.08,293.08c123.16,0,228.56-75.98,271.93-183.61H687.41
					C653.95,694.46,600.38,723.61,540,723.61z"/>
				<path class="st2" d="M485.26,364.69c17.29-5.39,35.67-8.3,54.74-8.3c101.4,0,183.61,82.2,183.61,183.61h109.47
					c0-161.86-131.21-293.08-293.08-293.08c-18.71,0-37,1.77-54.74,5.12V364.69z"/>
			</g>
			<g>
				<path class="st2" d="M540,723.61c-101.4,0-183.61-82.2-183.61-183.61c0-29.56,6.99-57.48,19.4-82.21V297.21
					C298.03,349.91,246.92,438.99,246.92,540c0,161.86,131.21,293.08,293.08,293.08c123.16,0,228.56-75.98,271.93-183.61H687.41
					C653.95,694.46,600.38,723.61,540,723.61z"/>
				<path class="st2" d="M485.26,364.69c17.29-5.39,35.67-8.3,54.74-8.3c101.4,0,183.61,82.2,183.61,183.61h109.47
					c0-161.86-131.21-293.08-293.08-293.08c-18.71,0-37,1.77-54.74,5.12V364.69z"/>
			</g>
		</g>
	</g>
	<g>
		<g>
			<rect x="485.27" y="330.37" class="st3" width="109.47" height="85.35"/>
		</g>
		<g>
			<g>
				<path class="st3" d="M540,723.61c-101.4,0-183.61-82.2-183.61-183.61c0-29.56,6.99-57.48,19.4-82.21V297.21
					C298.03,349.91,246.92,438.99,246.92,540c0,161.86,131.21,293.08,293.08,293.08c123.16,0,228.56-75.98,271.93-183.61H687.41
					C653.95,694.46,600.38,723.61,540,723.61z"/>
				<path class="st3" d="M485.26,364.69c17.29-5.39,35.67-8.3,54.74-8.3c101.4,0,183.61,82.2,183.61,183.61h109.47
					c0-161.86-131.21-293.08-293.08-293.08c-18.71,0-37,1.77-54.74,5.12V364.69z"/>
			</g>
		</g>
	</g>
</g>
</svg>
